<?xml version="1.0" standalone="no"?>
<!DOCTYPE svg PUBLIC "-//W3C//DTD SVG 20010904//EN"
 "http://www.w3.org/TR/2001/REC-SVG-20010904/DTD/svg10.dtd">
<svg version="1.0" xmlns="http://www.w3.org/2000/svg"
 width="700.000000pt" height="700.000000pt" viewBox="0 0 700.000000 700.000000"
 preserveAspectRatio="xMidYMid meet">
<metadata>
Created by potrace 1.14, written by Peter Selinger 2001-2017
</metadata>
<g transform="translate(0.000000,700.000000) scale(0.100000,-0.100000)"
fill="#000000" stroke="none">
<path d="M2379 6694 c-89 -16 -203 -58 -291 -107 -253 -142 -411 -427 -402
-728 3 -109 6 -131 35 -225 25 -82 58 -148 110 -225 45 -66 83 -106 204 -214
50 -44 92 -82 95 -85 3 -3 43 -39 90 -80 47 -41 87 -77 90 -80 3 -3 88 -79
190 -169 102 -90 221 -196 265 -236 44 -40 118 -105 165 -146 47 -41 87 -77
90 -80 3 -3 27 -25 53 -48 50 -43 84 -51 130 -30 47 21 50 32 62 249 4 63 8
140 10 170 2 30 6 105 10 165 3 61 8 146 10 190 10 150 14 220 20 335 4 63 8
133 10 155 6 71 19 318 20 375 2 114 -36 273 -88 376 -79 154 -230 300 -388
374 -143 67 -333 91 -490 64z"/>
<path d="M4294 6685 c-310 -78 -537 -301 -615 -604 -27 -103 -28 -264 -4 -571
2 -25 6 -97 10 -160 3 -63 8 -142 10 -175 4 -59 11 -182 20 -340 27 -482 31
-539 47 -565 23 -37 80 -50 121 -29 17 9 195 161 263 224 6 6 43 39 84 75 40
36 85 76 99 89 14 12 57 51 96 85 76 67 160 142 215 192 19 17 123 109 230
204 257 228 280 253 349 380 170 318 111 720 -145 974 -198 196 -519 287 -780
221z"/>
<path d="M5690 5370 c-180 -39 -352 -137 -467 -264 -48 -53 -48 -52 -29 -96
13 -32 13 -34 -29 -79 -23 -25 -100 -111 -171 -191 -71 -80 -133 -150 -139
-156 -13 -15 -41 -46 -234 -264 -90 -102 -194 -219 -231 -260 -139 -155 -160
-183 -160 -213 0 -49 35 -96 73 -97 14 0 17 -7 14 -35 -3 -20 -2 -37 2 -39 3
-2 53 -7 111 -10 58 -3 141 -8 185 -11 110 -7 233 -14 340 -20 50 -3 126 -7
170 -10 44 -3 125 -7 180 -10 55 -3 127 -7 160 -10 81 -6 249 -15 365 -20 370
-16 694 173 857 500 40 79 62 146 81 245 9 45 9 264 0 310 -4 19 -19 71 -33
115 -107 326 -347 544 -684 621 -14 3 -82 7 -151 9 -95 3 -146 -1 -210 -15z
m339 -214 c106 -25 232 -92 307 -164 75 -71 103 -108 147 -197 106 -211 105
-431 -3 -631 -61 -115 -148 -206 -257 -270 -97 -57 -176 -81 -296 -90 l-74 -5
-61 148 c-224 543 -285 691 -297 718 -7 17 -37 88 -66 158 l-52 128 24 25 c33
36 135 107 190 132 44 20 128 46 179 56 31 5 226 0 259 -8z"/>
<path d="M1035 5313 c-129 -24 -179 -35 -193 -42 -10 -5 -37 -17 -62 -27 -70
-29 -179 -105 -243 -169 -146 -148 -236 -357 -242 -567 -7 -234 72 -436 238
-609 145 -152 388 -251 597 -244 54 2 253 13 360 20 53 3 158 10 345 20 50 3
119 8 155 10 36 2 119 7 185 11 66 3 138 8 160 9 22 2 101 6 175 10 203 10
219 13 243 54 32 55 24 81 -60 177 -80 91 -442 499 -563 634 -37 41 -89 100
-115 130 -27 30 -51 57 -54 60 -3 3 -55 61 -116 130 -60 69 -132 147 -160 173
-140 135 -334 215 -535 221 -52 1 -104 1 -115 -1z"/>
<path d="M1002 3340 c-119 -16 -267 -76 -367 -149 -254 -183 -388 -514 -331
-813 44 -226 172 -432 343 -550 65 -44 198 -103 278 -123 152 -39 353 -24 503
36 140 56 241 135 398 313 82 93 71 80 164 186 73 82 134 151 155 174 22 24
414 465 489 551 44 49 83 92 86 95 71 60 63 165 -13 189 -18 5 -90 13 -162 16
-71 4 -150 8 -175 10 -25 2 -97 6 -160 9 -63 4 -140 9 -170 11 -30 2 -113 7
-185 10 -71 4 -150 8 -175 10 -25 2 -97 6 -160 10 -63 3 -144 8 -180 10 -153
11 -279 13 -338 5z"/>
<path d="M5817 3344 c-1 -1 -56 -5 -122 -8 -66 -4 -149 -9 -185 -11 -36 -2
-108 -7 -160 -10 -188 -10 -276 -16 -340 -20 -36 -3 -114 -7 -175 -10 -60 -4
-139 -8 -175 -10 -36 -3 -110 -7 -165 -10 -225 -11 -254 -22 -262 -98 -5 -40
-2 -45 69 -127 40 -47 80 -92 88 -100 8 -9 45 -49 81 -90 94 -107 322 -363
334 -376 5 -6 23 -26 39 -45 55 -63 171 -194 177 -199 5 -5 136 -152 209 -235
123 -141 250 -226 404 -274 94 -29 117 -32 224 -35 362 -10 666 199 797 548
24 64 29 82 45 181 10 65 5 232 -9 268 -6 15 -9 27 -6 27 7 0 -42 135 -68 185
-39 76 -80 132 -139 193 -163 168 -352 250 -590 257 -37 1 -69 0 -71 -1z"/>
<path d="M3113 2757 c-16 -9 -330 -282 -353 -307 -3 -3 -84 -75 -180 -159 -96
-85 -182 -161 -190 -170 -8 -9 -33 -31 -55 -50 -32 -27 -141 -124 -199 -176
-6 -5 -52 -46 -101 -89 -153 -134 -216 -212 -275 -340 -56 -120 -74 -209 -74
-351 1 -132 20 -223 73 -339 75 -165 209 -304 377 -389 54 -27 162 -66 204
-73 14 -3 33 -7 43 -10 10 -3 60 -7 111 -9 409 -17 777 286 840 693 14 95 14
143 -9 507 -1 22 -6 92 -9 155 -4 63 -9 142 -11 175 -4 65 -12 206 -20 355 -3
52 -7 115 -10 140 -2 25 -6 108 -10 185 -7 180 -17 226 -55 248 -33 20 -66 21
-97 4z"/>
<path d="M3800 2763 c-26 -7 -49 -49 -54 -99 -3 -27 -8 -98 -11 -159 -3 -60
-8 -139 -10 -175 -2 -36 -7 -110 -10 -165 -5 -95 -8 -144 -20 -330 -2 -44 -7
-127 -10 -185 -4 -58 -8 -130 -10 -160 -24 -366 -24 -428 -1 -554 9 -49 50
-155 81 -211 183 -327 543 -490 910 -411 103 22 236 85 331 157 78 58 106 88
169 174 197 272 201 657 8 941 -55 80 -103 129 -313 314 -84 74 -142 126 -186
165 -12 11 -52 47 -90 80 -37 33 -72 65 -78 70 -6 6 -47 42 -91 80 -44 39 -89
79 -101 90 -11 11 -51 47 -89 80 -37 33 -76 67 -85 75 -161 143 -235 207 -253
217 -22 12 -58 15 -87 6z"/>
</g>
</svg>
